<svg width="277" height="141" viewBox="0 0 277 141" fill="none" xmlns="http://www.w3.org/2000/svg">
<path d="M80.684 64.72C83.7106 65.0995 86.7835 64.8201 89.692 63.9009C92.6006 62.9818 95.276 61.4448 97.535 59.395C101.278 55.8169 103.496 50.9322 103.726 45.759C104.064 39.292 102.661 29.233 91.882 24.572C75.3 17.4 55.815 35.1 55.815 35.1C41.297 47.859 30.949 57.95 17.06 55.038C15.2678 54.5385 13.6258 53.6062 12.2784 52.3232C10.9311 51.0401 9.9196 49.4457 9.33301 47.68C8.51973 45.0044 8.62898 42.133 9.64325 39.5269C10.6575 36.9208 12.518 34.731 14.926 33.309C18.746 30.989 24.288 30.232 30.949 36.892C30.949 36.892 27.249 24.026 37.281 14.992C39.9185 12.6333 43.0735 10.9276 46.4916 10.0127C49.9096 9.09779 53.4949 8.99925 56.958 9.72504C60.2652 10.3458 63.3741 11.754 66.0219 13.8306C68.6696 15.9072 70.7781 18.5911 72.169 21.655L80.905 19.863C80.905 19.863 73.276 2.83704 58.273 1.26904C58.273 1.26904 31.353 -5.23096 22.212 23.895C22.212 23.895 19.763 22.195 14.645 23.849C11.0556 25.0096 7.84083 27.107 5.33252 29.9247C2.82421 32.7424 1.11315 36.1784 0.375975 39.878C0.343975 40.04 0.314009 40.202 0.286009 40.366C-0.29326 43.8966 0.0679144 47.5174 1.33313 50.864C2.59834 54.2106 4.7229 57.1648 7.49298 59.429C12.949 63.952 22.386 67.429 37.108 59.889C39.6376 58.5851 42.0134 57.0023 44.191 55.17C50.54 49.851 67.391 36.048 75.305 32.632C75.305 32.632 88.521 27.619 93.812 37.107C94.5095 38.3581 94.9922 39.7173 95.24 41.128C95.5393 42.9362 95.4422 44.7877 94.9554 46.5546C94.4686 48.3216 93.6037 49.9616 92.4207 51.3613C91.2376 52.7611 89.7645 53.887 88.1034 54.6614C86.4423 55.4357 84.6327 55.8399 82.8 55.846C81.1596 55.8596 79.538 55.4977 78.059 54.788C76.6058 54.075 75.3213 53.0604 74.2911 51.8118C73.261 50.5632 72.5089 49.1093 72.085 47.547C71.1569 44.252 71.3442 40.7425 72.618 37.565L62.985 44.202C62.985 44.202 63.439 61.408 80.685 64.72" fill="url(#paint0_linear_4_230)"/>
<path d="M74.169 60.6001V80.7791H63.121V44.1791C63.121 44.1791 63.42 54.5391 74.169 60.6001Z" fill="url(#paint1_linear_4_230)"/>
<path d="M145.869 86.8461H140.365L135.868 74.9515H117.878L113.647 86.8461H108.114L124.388 44.4163H129.536L145.869 86.8461ZM134.24 70.4837L127.583 52.4052C127.366 51.8134 127.149 50.8666 126.932 49.5647H126.814C126.617 50.768 126.39 51.7148 126.133 52.4052L119.535 70.4837H134.24ZM182.558 86.8461H176.641L169.539 74.9515C168.888 73.8469 168.257 72.9099 167.646 72.1406C167.034 71.3516 166.403 70.7105 165.752 70.2174C165.121 69.7243 164.431 69.3692 163.681 69.1522C162.951 68.9155 162.123 68.7972 161.196 68.7972H157.112V86.8461H152.141V44.4163H164.805C166.659 44.4163 168.366 44.653 169.924 45.1265C171.502 45.5801 172.863 46.2804 174.007 47.2272C175.171 48.1741 176.078 49.3576 176.729 50.7778C177.38 52.1784 177.706 53.8254 177.706 55.7191C177.706 57.1985 177.479 58.5596 177.025 59.8023C176.591 61.0253 175.96 62.12 175.132 63.0866C174.323 64.0532 173.337 64.8816 172.173 65.572C171.029 66.2427 169.737 66.7654 168.297 67.1402V67.2586C169.007 67.5742 169.618 67.9391 170.131 68.3533C170.664 68.7478 171.167 69.2213 171.64 69.7736C172.114 70.3259 172.577 70.9571 173.031 71.6672C173.504 72.3576 174.027 73.1664 174.599 74.0935L182.558 86.8461ZM157.112 48.9138V64.2997H163.858C165.101 64.2997 166.245 64.1123 167.291 63.7375C168.356 63.3628 169.273 62.8302 170.042 62.1398C170.812 61.4297 171.413 60.5716 171.847 59.5656C172.281 58.5399 172.498 57.3958 172.498 56.1333C172.498 53.8649 171.759 52.0994 170.279 50.837C168.819 49.5548 166.699 48.9138 163.918 48.9138H157.112ZM231.675 86.8461H226.734V58.382C226.734 56.1333 226.872 53.3816 227.148 50.1269H227.03C226.556 52.0403 226.132 53.4112 225.757 54.2397L211.259 86.8461H208.833L194.364 54.4764C193.95 53.5296 193.526 52.0797 193.092 50.1269H192.973C193.131 51.8233 193.21 54.5947 193.21 58.4412V86.8461H188.417V44.4163H194.985L208.004 74.0047C209.01 76.2732 209.661 77.9696 209.957 79.0939H210.135C210.983 76.7663 211.663 75.0304 212.176 73.8864L225.461 44.4163H231.675V86.8461ZM275.703 86.8461H270.199L265.702 74.9515H247.712L243.481 86.8461H237.948L254.221 44.4163H259.37L275.703 86.8461ZM264.074 70.4837L257.417 52.4052C257.2 51.8134 256.983 50.8666 256.766 49.5647H256.648C256.45 50.768 256.224 51.7148 255.967 52.4052L249.369 70.4837H264.074Z" fill="#F0861F"/>
<path d="M81.798 125.024C78.8224 126.596 75.117 127.382 70.6817 127.382C64.9552 127.382 60.3702 125.538 56.9268 121.852C53.4834 118.165 51.7617 113.327 51.7617 107.339C51.7617 100.901 53.6986 95.6986 57.5724 91.7312C61.4463 87.7638 66.3588 85.7801 72.3099 85.7801C76.1276 85.7801 79.2903 86.3321 81.798 87.4363V92.461C78.916 90.8516 75.7346 90.0469 72.2537 90.0469C67.6313 90.0469 63.8791 91.5908 60.9971 94.6787C58.1339 97.7665 56.7022 101.893 56.7022 107.058C56.7022 111.961 58.0403 115.872 60.7164 118.792C63.4113 121.693 66.9389 123.143 71.2993 123.143C75.3416 123.143 78.8411 122.245 81.798 120.448V125.024ZM110.88 126.708H89.9948V86.4538H94.7108V122.441H110.88V126.708ZM131.316 127.382C125.608 127.382 121.032 125.501 117.589 121.739C114.164 117.978 112.452 113.084 112.452 107.058C112.452 100.583 114.202 95.4179 117.701 91.5628C121.201 87.7076 125.963 85.7801 131.989 85.7801C137.548 85.7801 142.02 87.6515 145.408 91.3943C148.813 95.1372 150.516 100.031 150.516 106.076C150.516 112.644 148.776 117.837 145.295 121.655C141.814 125.473 137.155 127.382 131.316 127.382ZM131.653 90.0469C127.423 90.0469 123.989 91.5721 121.35 94.6225C118.712 97.6729 117.392 101.678 117.392 106.637C117.392 111.596 118.674 115.592 121.238 118.623C123.821 121.636 127.18 123.143 131.316 123.143C135.732 123.143 139.213 121.702 141.758 118.82C144.303 115.938 145.576 111.905 145.576 106.721C145.576 101.406 144.341 97.2987 141.871 94.398C139.4 91.4973 135.994 90.0469 131.653 90.0469ZM187.879 110.427C187.879 121.73 182.78 127.382 172.581 127.382C162.812 127.382 157.927 121.945 157.927 111.072V86.4538H162.643V110.764C162.643 119.016 166.124 123.143 173.086 123.143C179.804 123.143 183.163 119.157 183.163 111.185V86.4538H187.879V110.427ZM197.957 126.708V86.4538H209.073C223.259 86.4538 230.351 92.9944 230.351 106.076C230.351 112.289 228.377 117.285 224.428 121.066C220.498 124.827 215.23 126.708 208.624 126.708H197.957ZM202.673 90.7206V122.441H208.68C213.958 122.441 218.065 121.028 221.003 118.202C223.942 115.377 225.411 111.372 225.411 106.188C225.411 95.8764 219.927 90.7206 208.961 90.7206H202.673ZM236.387 125.08V119.522C237.023 120.083 237.781 120.588 238.66 121.038C239.559 121.487 240.494 121.87 241.467 122.189C242.459 122.488 243.451 122.722 244.443 122.89C245.435 123.059 246.352 123.143 247.194 123.143C250.095 123.143 252.256 122.61 253.678 121.543C255.119 120.457 255.84 118.904 255.84 116.883C255.84 115.798 255.597 114.853 255.11 114.048C254.642 113.243 253.987 112.513 253.145 111.858C252.303 111.185 251.302 110.548 250.141 109.949C249 109.332 247.765 108.686 246.436 108.013C245.033 107.301 243.723 106.581 242.506 105.851C241.29 105.121 240.232 104.316 239.334 103.437C238.436 102.557 237.725 101.565 237.201 100.461C236.695 99.3385 236.443 98.0285 236.443 96.5314C236.443 94.6974 236.845 93.1067 237.65 91.7593C238.454 90.3931 239.512 89.2703 240.822 88.3907C242.132 87.5111 243.62 86.8561 245.285 86.4257C246.969 85.9953 248.682 85.7801 250.422 85.7801C254.39 85.7801 257.281 86.2573 259.096 87.2117V92.5172C256.72 90.8703 253.669 90.0469 249.945 90.0469C248.916 90.0469 247.886 90.1592 246.857 90.3838C245.828 90.5896 244.911 90.9358 244.106 91.4224C243.301 91.909 242.646 92.5359 242.141 93.3032C241.636 94.0705 241.383 95.0062 241.383 96.1103C241.383 97.1396 241.57 98.0285 241.945 98.7771C242.338 99.5256 242.908 100.209 243.657 100.826C244.406 101.444 245.313 102.043 246.38 102.623C247.465 103.203 248.71 103.839 250.113 104.532C251.554 105.243 252.921 105.991 254.212 106.777C255.503 107.563 256.635 108.434 257.608 109.388C258.582 110.342 259.349 111.4 259.91 112.56C260.49 113.72 260.781 115.049 260.781 116.546C260.781 118.53 260.388 120.214 259.602 121.599C258.834 122.965 257.786 124.079 256.458 124.94C255.148 125.8 253.632 126.418 251.91 126.792C250.188 127.185 248.373 127.382 246.464 127.382C245.828 127.382 245.042 127.326 244.106 127.213C243.17 127.12 242.216 126.97 241.243 126.764C240.27 126.577 239.343 126.343 238.464 126.062C237.603 125.763 236.911 125.435 236.387 125.08Z" fill="#F0861F"/>
<defs>
<linearGradient id="paint0_linear_4_230" x1="0.017334" y1="32.7672" x2="103.77" y2="32.7672" gradientUnits="userSpaceOnUse">
<stop stop-color="#83BEDC"/>
<stop offset="0.201" stop-color="#67B3E4"/>
<stop offset="0.512" stop-color="#ED8A39"/>
</linearGradient>
<linearGradient id="paint1_linear_4_230" x1="63.121" y1="62.4791" x2="74.169" y2="62.4791" gradientUnits="userSpaceOnUse">
<stop offset="0.228" stop-color="#EF8618"/>
<stop offset="1" stop-color="#ED8A39"/>
</linearGradient>
</defs>
</svg>
